<svg width="698" height="736" viewBox="0 0 698 736" fill="none" xmlns="http://www.w3.org/2000/svg">
    <path d="M29.699 108.313C47.777 94.669 74.957 85.688 114.073 91.505L114.5 91.568V133.423L114.083 133.493C107.726 134.567 98.153 137.692 90.133 143.565C82.122 149.432 75.697 158.009 75.5 170.008C75.1 194.398 75.332 478.057 75.499 616.923C77.243 622.615 81.255 631.132 87.635 638.228C94.036 645.347 102.785 651 114 651H528.909C534.366 649.005 542.54 644.919 549.402 639.118C556.307 633.282 561.805 625.779 562 616.988C562.4 598.995 562.167 456.84 562 388.001L561.999 387.782L562.16 387.634L618.16 335.634L619 334.854V648.064L618.983 648.127C615.635 660.85 607.558 680.289 594.193 697.309C580.827 714.33 562.135 728.975 537.561 731.996C513.12 735.001 430.91 735.625 338.135 735.188C245.336 734.75 141.908 733.25 74.99 732L74.968 731.999L74.944 731.997C62.947 730.655 44.828 725.024 29.397 712.488C13.951 699.939 1.206 680.476 0 651.521V152.947L0.0110016 152.896C2.7 140.206 11.636 121.947 29.699 108.313ZM514.5 90.5C530.833 88.333 569.5 89.9 593.5 113.5C617.5 137.1 620.833 178.333 619.5 196L563.5 231C561.5 228.5 561.5 244.8 563.5 192C565.5 139.2 531.667 132.333 514.5 135.5V90.5ZM310 0C356.985 0 395.464 28.226 398.769 64H478C485.732 64 492 70.268 492 78V154C492 161.732 485.732 168 478 168H150C142.268 168 136 161.732 136 154V78C136 70.268 142.268 64 150 64H221.231C224.536 28.226 263.015 0 310 0ZM312 43C298.378 43 286.81 51.786 282.649 64H341.351C337.19 51.786 325.622 43 312 43Z" fill="url(#paint0_linear_0_1)"/>
    <path d="M478.5 223H142.5C137.253 223 133 227.253 133 232.5C133 237.747 137.253 242 142.5 242H478.5C483.747 242 488 237.747 488 232.5C488 227.253 483.747 223 478.5 223Z" fill="#ECECEC"/>
    <path d="M478.5 303.75H142.5C137.253 303.75 133 308.003 133 313.25C133 318.497 137.253 322.75 142.5 322.75H478.5C483.747 322.75 488 318.497 488 313.25C488 308.003 483.747 303.75 478.5 303.75Z" fill="#ECECEC"/>
    <path d="M478.5 384.5H142.5C137.253 384.5 133 388.753 133 394C133 399.247 137.253 403.5 142.5 403.5H478.5C483.747 403.5 488 399.247 488 394C488 388.753 483.747 384.5 478.5 384.5Z" fill="#ECECEC"/>
    <path d="M478.5 465.25H142.5C137.253 465.25 133 469.503 133 474.75C133 479.997 137.253 484.25 142.5 484.25H478.5C483.747 484.25 488 479.997 488 474.75C488 469.503 483.747 465.25 478.5 465.25Z" fill="#ECECEC"/>
    <path d="M478.5 546H142.5C137.253 546 133 550.253 133 555.5C133 560.747 137.253 565 142.5 565H478.5C483.747 565 488 560.747 488 555.5C488 550.253 483.747 546 478.5 546Z" fill="#ECECEC"/>
    <path d="M208.591 350L157.729 387.399C157.637 387.467 157.538 387.527 157.437 387.579C147.409 392.762 149.678 408.271 151.96 415.589C152.046 415.864 152.184 416.1 152.379 416.312C198.489 466.259 293.62 568.223 307.591 579C321.419 589.667 336.709 585.278 342.865 581.636C343.019 581.545 343.153 581.434 343.276 581.303L696.772 205.048C698.39 203.325 696.208 200.714 694.226 202.001L328.843 439.187C328.101 439.669 327.129 439.606 326.456 439.031L242.208 367.101C242.13 367.034 242.055 366.959 241.988 366.881C224.842 347.002 212.583 347.339 208.591 350Z" fill="#ECECEC"/>
    <path d="M201.591 342L150.729 379.399C150.637 379.467 150.538 379.527 150.437 379.579C140.409 384.762 142.678 400.271 144.96 407.589C145.046 407.864 145.184 408.1 145.379 408.312C191.489 458.259 286.62 560.223 300.591 571C314.419 581.667 329.709 577.278 335.865 573.636C336.019 573.545 336.153 573.434 336.276 573.303L689.772 197.048C691.39 195.325 689.208 192.714 687.226 194.001L321.843 431.187C321.101 431.669 320.129 431.606 319.456 431.031L235.208 359.101C235.13 359.034 235.055 358.959 234.988 358.881C217.842 339.002 205.583 339.339 201.591 342Z" fill="url(#paint1_linear_0_1)"/>
    <path d="M313.5 42C331.449 42 346 56.551 346 74.5C346 92.449 331.449 107 313.5 107C295.551 107 281 92.449 281 74.5C281 56.551 295.551 42 313.5 42Z" fill="white"/>
    <defs>
        <linearGradient id="paint0_linear_0_1" x1="333.5" y1="735" x2="310" y2="6.49996" gradientUnits="userSpaceOnUse">
            <stop stop-color="#F15922"/>
            <stop offset="1" stop-color="#F6921E"/>
        </linearGradient>
        <linearGradient id="paint1_linear_0_1" x1="608.181" y1="577.704" x2="98.8539" y2="358.781" gradientUnits="userSpaceOnUse">
            <stop stop-color="#F15922"/>
            <stop offset="1" stop-color="#F6921E"/>
        </linearGradient>
    </defs>
</svg>
