<svg width="24" height="24" viewBox="0 0 24 24" fill="none" xmlns="http://www.w3.org/2000/svg">
<path d="M22 9.75C21.59 9.75 21.25 9.41 21.25 9V7C21.25 4.42 19.58 2.75 17 2.75H15C14.59 2.75 14.25 2.41 14.25 2C14.25 1.59 14.59 1.25 15 1.25H17C20.44 1.25 22.75 3.56 22.75 7V9C22.75 9.41 22.41 9.75 22 9.75Z" fill="white"/>
<path d="M2 9.75C1.59 9.75 1.25 9.41 1.25 9V7C1.25 3.56 3.56 1.25 7 1.25H9C9.41 1.25 9.75 1.59 9.75 2C9.75 2.41 9.41 2.75 9 2.75H7C4.42 2.75 2.75 4.42 2.75 7V9C2.75 9.41 2.41 9.75 2 9.75Z" fill="white"/>
<path d="M17 22.75H15C14.59 22.75 14.25 22.41 14.25 22C14.25 21.59 14.59 21.25 15 21.25H17C19.58 21.25 21.25 19.58 21.25 17V15C21.25 14.59 21.59 14.25 22 14.25C22.41 14.25 22.75 14.59 22.75 15V17C22.75 20.44 20.44 22.75 17 22.75Z" fill="white"/>
<path d="M9 22.75H7C3.56 22.75 1.25 20.44 1.25 17V15C1.25 14.59 1.59 14.25 2 14.25C2.41 14.25 2.75 14.59 2.75 15V17C2.75 19.58 4.42 21.25 7 21.25H9C9.41 21.25 9.75 21.59 9.75 22C9.75 22.41 9.41 22.75 9 22.75Z" fill="white"/>
<path d="M9.56844 18.5894C8.6129 17.2258 8.05078 15.5667 8.05078 13.7754C8.05078 11.4555 9.93035 9.5752 12.2488 9.5752C14.5673 9.5752 16.4469 11.4555 16.4469 13.7754" stroke="white" stroke-linecap="round" stroke-linejoin="round"/>
<path d="M16.6751 17.9644C16.5995 17.9686 16.5253 17.9756 16.449 17.9756C14.1305 17.9756 12.251 16.0953 12.251 13.7754" stroke="white" stroke-linecap="round" stroke-linejoin="round"/>
<path d="M16.6751 17.9644C16.5995 17.9686 16.5253 17.9756 16.449 17.9756C14.1305 17.9756 12.251 16.0953 12.251 13.7754" stroke="white" stroke-opacity="0.3" stroke-width="0.5" stroke-linecap="round" stroke-linejoin="round"/>
<path d="M13.1231 19.125C11.3394 18.0126 10.1515 16.0329 10.1515 13.7753C10.1515 12.6154 11.0916 11.6753 12.2508 11.6753C13.4101 11.6753 14.3502 12.6154 14.3502 13.7753C14.3502 14.9353 15.2904 15.8754 16.4496 15.8754C17.6089 15.8754 18.549 14.9353 18.549 13.7753C18.549 10.2955 15.7293 7.4751 12.2515 7.4751C8.77381 7.4751 5.9541 10.2955 5.9541 13.7753C5.9541 14.551 6.0409 15.3063 6.20051 16.0343" stroke="white" stroke-linecap="round" stroke-linejoin="round"/>
<path d="M18.1113 8.0309C16.6798 6.40474 14.5867 5.375 12.25 5.375C9.91331 5.375 7.82023 6.40474 6.38867 8.0309" stroke="white" stroke-linecap="round" stroke-linejoin="round"/>
<path d="M18.1113 8.0309C16.6798 6.40474 14.5867 5.375 12.25 5.375C9.91331 5.375 7.82023 6.40474 6.38867 8.0309" stroke="white" stroke-opacity="0.5" stroke-linecap="round" stroke-linejoin="round"/>
</svg>
