<svg width="45" height="36" viewBox="0 0 45 36" fill="none" xmlns="http://www.w3.org/2000/svg">
    <rect width="45" height="36" rx="8" fill="#F5F5F5"/>
    <path d="M18.45 20.6667H26.55M36 27.3333C36 28.0406 35.7155 28.7189 35.2092 29.219C34.7028 29.719 34.0161 30 33.3 30H11.7C10.9839 30 10.2972 29.719 9.79081 29.219C9.28446 28.7189 9 28.0406 9 27.3333V8.66667C9 7.95942 9.28446 7.28115 9.79081 6.78105C10.2972 6.28095 10.9839 6 11.7 6H18.45L21.15 10H33.3C34.0161 10 34.7028 10.281 35.2092 10.781C35.7155 11.2811 36 11.9594 36 12.6667V27.3333Z" stroke="#9C9C9C" stroke-width="3" stroke-linecap="round" stroke-linejoin="round"/>
</svg>
