<svg width="54" height="54" viewBox="0 0 54 54" fill="none" xmlns="http://www.w3.org/2000/svg">
<path d="M35.3925 6.75L18.6075 6.75L6.75 18.6075L6.75 35.3925L18.6075 47.25L35.3925 47.25L47.25 35.3925L47.25 18.6075L35.3925 6.75ZM42.75 33.525L33.525 42.75L20.475 42.75L11.25 33.525L11.25 20.475L20.475 11.25L33.525 11.25L42.75 20.475L42.75 33.525Z" fill="#FE9705"/>
<path d="M27 38.25C28.2426 38.25 29.25 37.2426 29.25 36C29.25 34.7574 28.2426 33.75 27 33.75C25.7574 33.75 24.75 34.7574 24.75 36C24.75 37.2426 25.7574 38.25 27 38.25Z" fill="#FE9705"/>
<path d="M24.75 15.755L29.25 15.755L29.25 31.505H24.75L24.75 15.755Z" fill="#FE9705"/>
</svg>
