<svg width="81" height="81" viewBox="0 0 81 81" fill="none" xmlns="http://www.w3.org/2000/svg">
<path fill-rule="evenodd" clip-rule="evenodd" d="M41 75.5C45.5963 75.5 50.1475 74.5947 54.3939 72.8358C58.6403 71.0769 62.4987 68.4988 65.7487 65.2487C68.9988 61.9987 71.5769 58.1403 73.3358 53.8939C75.0947 49.6475 76 45.0963 76 40.5C76 35.9037 75.0947 31.3525 73.3358 27.1061C71.5769 22.8597 68.9988 19.0013 65.7487 15.7513C62.4987 12.5012 58.6403 9.92313 54.3939 8.16422C50.1475 6.4053 45.5963 5.5 41 5.5C31.7174 5.5 22.815 9.18749 16.2513 15.7513C9.68749 22.315 6 31.2174 6 40.5C6 49.7826 9.68749 58.685 16.2513 65.2487C22.815 71.8125 31.7174 75.5 41 75.5ZM40.0978 54.6556L59.5422 31.3222L53.5689 26.3444L36.8467 46.4072L28.1939 37.7506L22.695 43.2494L34.3617 54.9161L37.3717 57.9261L40.0978 54.6556Z" fill="#379100"/>
</svg>
