<svg width="24" height="24" viewBox="0 0 24 24" fill="none" xmlns="http://www.w3.org/2000/svg">
    <rect width="24" height="24" rx="6" fill="#FE0000"/>
    <path fill-rule="evenodd" clip-rule="evenodd" d="M12 19C8.7002 19 7.0503 19 6.0248 17.9745C5 16.9504 5 15.2998 5 12C5 8.7002 5 7.0503 6.0248 6.0248C7.051 5 8.7002 5 12 5C15.2998 5 16.9497 5 17.9745 6.0248C19 7.051 19 8.7002 19 12C19 15.2998 19 16.9497 17.9745 17.9745C16.9504 19 15.2998 19 12 19ZM9.879 9.879C9.97744 9.78068 10.1109 9.72546 10.25 9.72546C10.3891 9.72546 10.5226 9.78068 10.621 9.879L12 11.258L13.379 9.879C13.4785 9.78626 13.6102 9.73578 13.7462 9.73818C13.8822 9.74058 14.0119 9.79568 14.1081 9.89186C14.2043 9.98805 14.2594 10.1178 14.2618 10.2538C14.2642 10.3898 14.2137 10.5215 14.121 10.621L12.742 12L14.121 13.379C14.1726 13.4271 14.214 13.485 14.2426 13.5494C14.2713 13.6138 14.2868 13.6833 14.288 13.7538C14.2893 13.8243 14.2763 13.8943 14.2499 13.9597C14.2235 14.0251 14.1842 14.0845 14.1343 14.1343C14.0845 14.1842 14.0251 14.2235 13.9597 14.2499C13.8943 14.2763 13.8243 14.2893 13.7538 14.288C13.6833 14.2868 13.6138 14.2713 13.5494 14.2426C13.485 14.214 13.4271 14.1726 13.379 14.121L12 12.742L10.621 14.121C10.5729 14.1726 10.515 14.214 10.4506 14.2426C10.3862 14.2713 10.3167 14.2868 10.2462 14.288C10.1757 14.2893 10.1057 14.2763 10.0403 14.2499C9.97491 14.2235 9.91553 14.1842 9.86567 14.1343C9.81582 14.0845 9.77652 14.0251 9.75011 13.9597C9.72371 13.8943 9.71074 13.8243 9.71199 13.7538C9.71323 13.6833 9.72866 13.6138 9.75735 13.5494C9.78605 13.485 9.82742 13.4271 9.879 13.379L11.258 12L9.879 10.621C9.78068 10.5226 9.72546 10.3891 9.72546 10.25C9.72546 10.1109 9.78068 9.97744 9.879 9.879Z" fill="white"/>
</svg>
