<svg width="24" height="24" viewBox="0 0 24 24" fill="none" xmlns="http://www.w3.org/2000/svg">
    <path d="M21.1251 2.97655C18.6511 0.374784 16.228 0.307728 13.6902 2.97655L12.1471 4.5993C12.0195 4.73341 11.9685 4.94799 12.0195 5.13575C12.9888 8.68971 15.6924 11.5329 19.0719 12.5521C19.1229 12.5655 19.1739 12.5789 19.2249 12.5789C19.3652 12.5789 19.4928 12.5253 19.5948 12.418L21.1251 10.7953C22.3877 9.48097 22.9998 8.20691 22.9998 6.91943C23.0126 5.59173 22.4004 4.30426 21.1251 2.97655Z" fill="#36A4F8"/>
    <path d="M17.82 13.1938C17.4174 13.01 17.0287 12.8263 16.6539 12.6162C16.3485 12.4456 16.057 12.2618 15.7654 12.0649C15.5294 11.9205 15.2518 11.7104 14.988 11.5004C14.9603 11.4873 14.8631 11.4085 14.752 11.3035C14.2939 10.9359 13.7803 10.4633 13.3222 9.93822C13.2805 9.91197 13.2111 9.82008 13.1139 9.70193C12.9751 9.5444 12.7391 9.28185 12.5309 8.97992C12.3643 8.78301 12.1699 8.49421 11.9895 8.20541C11.7673 7.85096 11.573 7.49652 11.3786 7.12896C11.3047 6.97922 11.2369 6.83138 11.1735 6.68616C11.0317 6.36125 10.6116 6.26584 10.354 6.50942L2.17469 14.244C1.99422 14.4147 1.82763 14.7429 1.78598 14.966L1.03634 19.9938C0.897518 20.8865 1.16128 21.7266 1.74434 22.2911C2.2441 22.7506 2.93821 23 3.68785 23C3.85444 23 4.02103 22.9869 4.18762 22.9606L9.51841 22.2517C9.76829 22.2124 10.1153 22.0548 10.2819 21.8842L18.3961 14.2112C18.67 13.9522 18.5706 13.4918 18.2197 13.3543C18.0896 13.3033 17.9571 13.25 17.82 13.1938Z" fill="#36A4F8"/>
</svg>
