<svg width="24" height="24" viewBox="0 0 24 24" fill="none" xmlns="http://www.w3.org/2000/svg">
    <rect width="24" height="24" rx="6" fill="#FFAB08"/>
    <path d="M6.46984 19H17.5302C18.6612 19 19.3662 17.6253 18.8007 16.5305L13.2705 5.82111C12.705 4.7263 11.295 4.7263 10.7295 5.82111L5.1993 16.5305C4.6338 17.6253 5.33884 19 6.46984 19ZM12 13.2378C11.5961 13.2378 11.2656 12.8674 11.2656 12.4147V10.7683C11.2656 10.3156 11.5961 9.94517 12 9.94517C12.4039 9.94517 12.7344 10.3156 12.7344 10.7683V12.4147C12.7344 12.8674 12.4039 13.2378 12 13.2378ZM12.7344 16.5305H11.2656V14.8842H12.7344V16.5305Z" fill="white"/>
</svg>
