<svg width="24" height="24" viewBox="0 0 24 24" fill="none" xmlns="http://www.w3.org/2000/svg">
    <rect width="24" height="24" rx="6" fill="#2A83EA"/>
    <path d="M12 5C10.5461 5 9.15166 5.54342 8.12356 6.51071C7.09547 7.47801 6.51789 8.78994 6.51789 10.1579V12.7575C6.518 12.8718 6.48985 12.9845 6.43566 13.0868L5.09097 15.6164C5.02529 15.74 4.99427 15.8773 5.00087 16.0154C5.00747 16.1534 5.05147 16.2876 5.12868 16.4051C5.20589 16.5226 5.31376 16.6196 5.44204 16.6869C5.57032 16.7542 5.71474 16.7895 5.8616 16.7895H18.1384C18.2853 16.7895 18.4297 16.7542 18.558 16.6869C18.6862 16.6196 18.7941 16.5226 18.8713 16.4051C18.9485 16.2876 18.9925 16.1534 18.9991 16.0154C19.0057 15.8773 18.9747 15.74 18.909 15.6164L17.5651 13.0868C17.5107 12.9846 17.4822 12.8718 17.4821 12.7575V10.1579C17.4821 8.78994 16.9045 7.47801 15.8764 6.51071C14.8483 5.54342 13.4539 5 12 5ZM12 19C11.5139 19.0002 11.0397 18.8586 10.6428 18.5947C10.2459 18.3308 9.94568 17.9575 9.78366 17.5263H14.2163C14.0543 17.9575 13.7541 18.3308 13.3572 18.5947C12.9603 18.8586 12.4861 19.0002 12 19Z" fill="white"/>
</svg>
