<svg width="20" height="20" viewBox="0 0 20 20" fill="none" xmlns="http://www.w3.org/2000/svg">
    <path d="M10 14.5C9.10998 14.5 8.23995 14.2361 7.49993 13.7416C6.75991 13.2471 6.18314 12.5443 5.84254 11.7221C5.50195 10.8998 5.41283 9.99501 5.58647 9.12209C5.7601 8.24918 6.18868 7.44736 6.81802 6.81802C7.44736 6.18868 8.24918 5.7601 9.12209 5.58647C9.99501 5.41283 10.8998 5.50195 11.7221 5.84254C12.5443 6.18314 13.2471 6.75991 13.7416 7.49993C14.2361 8.23995 14.5 9.10998 14.5 10C14.5 11.1935 14.0259 12.3381 13.182 13.182C12.3381 14.0259 11.1935 14.5 10 14.5ZM10 3C3 3 0 10 0 10C0 10 3 17 10 17C17 17 20 10 20 10C20 10 17 3 10 3Z" fill="black"/>
    <path d="M10 12.5C11.3807 12.5 12.5 11.3807 12.5 10C12.5 8.61929 11.3807 7.5 10 7.5C8.61929 7.5 7.5 8.61929 7.5 10C7.5 11.3807 8.61929 12.5 10 12.5Z" fill="black"/>
</svg>
