<svg width="15" height="15" viewBox="0 0 15 15" fill="none" xmlns="http://www.w3.org/2000/svg">
    <path d="M11.2812 13.2812H3.71875C2.61418 13.2812 1.71875 12.3858 1.71875 11.2812V3.71875C1.71875 2.61418 2.61418 1.71875 3.71875 1.71875H11.2812C12.3858 1.71875 13.2812 2.61418 13.2812 3.71875V11.2812C13.2812 12.3858 12.3858 13.2812 11.2812 13.2812Z" stroke="#121219"/>
    <path d="M1.875 10.4728L4.71252 8.01509C5.46707 7.36154 6.588 7.36444 7.33916 8.0219L12.8125 12.8125" stroke="#121219" stroke-linecap="round" stroke-linejoin="round"/>
    <path d="M11.25 4.6875C11.25 4.16973 10.8303 3.75 10.3125 3.75C9.79473 3.75 9.375 4.16973 9.375 4.6875C9.375 5.20527 9.79473 5.625 10.3125 5.625C10.8303 5.625 11.25 5.20527 11.25 4.6875Z" stroke="#121219"/>
</svg>
