<svg width="14" height="13" viewBox="0 0 14 13" fill="none" xmlns="http://www.w3.org/2000/svg">
    <path d="M4.25 2.375L4.28397 2.1712C4.4447 1.20683 5.27908 0.5 6.25675 0.5L7.24325 0.5C8.22092 0.5 9.0553 1.20683 9.21603 2.1712L9.25 2.375" stroke="#121219" stroke-linecap="round"/>
    <path d="M4.25 2.375H2.5C1.39543 2.375 0.5 3.27043 0.5 4.375V10.375C0.5 11.4796 1.39543 12.375 2.5 12.375H11C12.1046 12.375 13 11.4796 13 10.375V4.375C13 3.27043 12.1046 2.375 11 2.375H9.25" stroke="#121219" stroke-linecap="round"/>
    <path d="M9.38132 7.4271C9.38132 5.96968 8.20312 4.78821 6.74974 4.78821C5.29636 4.78821 4.11816 5.96968 4.11816 7.4271C4.11816 8.88452 5.29636 10.066 6.74974 10.066C8.20312 10.066 9.38132 8.88452 9.38132 7.4271Z" stroke="#121219"/>
</svg>
