<svg width="15" height="18" viewBox="0 0 15 18" fill="none" xmlns="http://www.w3.org/2000/svg">
    <path d="M1.71267 13.9402L3.78911 9.65376C3.98918 9.24075 3.98917 8.75887 3.78909 8.34586L1.71269 4.05977C1.61393 3.85591 1.55682 3.63188 1.57528 3.40611C1.6104 2.97664 1.72501 2.6527 1.99749 2.51013C2.21716 2.39518 2.4773 2.49163 2.69567 2.60904L12.8552 8.0717C13.0729 8.18875 13.2436 8.36917 13.2655 8.61537C13.2866 8.85247 13.2865 9.15338 13.2652 9.38946C13.2433 9.6326 13.0744 9.81043 12.8594 9.92604L2.6954 15.3911C2.4772 15.5084 2.21732 15.6048 1.99774 15.4901C1.72507 15.3476 1.6104 15.0235 1.57528 14.5939C1.55682 14.3681 1.61393 14.1441 1.71267 13.9402Z" stroke="#121219" stroke-linecap="round"/>
    <path d="M13.125 9L4.29551 8.99982" stroke="#121219" stroke-linecap="round"/>
</svg>
