<svg width="20" height="20" viewBox="0 0 20 20" fill="none" xmlns="http://www.w3.org/2000/svg">
<path d="M14.9997 9.99996C14.9997 10.9204 15.7459 11.6666 16.6663 11.6666C17.5868 11.6666 18.333 10.9204 18.333 9.99996C18.333 9.07948 17.5868 8.33329 16.6663 8.33329C15.7459 8.33329 14.9997 9.07948 14.9997 9.99996Z" stroke="#121219" stroke-opacity="0.9" stroke-width="1.5"/>
<path d="M8.33268 9.99996C8.33268 10.9204 9.07887 11.6666 9.99935 11.6666C10.9198 11.6666 11.666 10.9204 11.666 9.99996C11.666 9.07948 10.9198 8.33329 9.99935 8.33329C9.07887 8.33329 8.33268 9.07948 8.33268 9.99996Z" stroke="#121219" stroke-opacity="0.9" stroke-width="1.5"/>
<path d="M1.66667 9.99996C1.66667 10.9204 2.41286 11.6666 3.33333 11.6666C4.25381 11.6666 5 10.9204 5 9.99996C5 9.07948 4.25381 8.33329 3.33333 8.33329C2.41286 8.33329 1.66667 9.07948 1.66667 9.99996Z" stroke="#121219" stroke-opacity="0.9" stroke-width="1.5"/>
</svg>
