<svg width="15" height="15" viewBox="0 0 15 15" fill="none" xmlns="http://www.w3.org/2000/svg">
<g clip-path="url(#clip0_1612_863)">
<path d="M6.875 2.50002H4.25C3.1999 2.50002 2.67485 2.50002 2.27377 2.70438C1.92096 2.88415 1.63413 3.17098 1.45436 3.52379C1.25 3.92487 1.25 4.44992 1.25 5.50002V10.75C1.25 11.8001 1.25 12.3252 1.45436 12.7263C1.63413 13.0791 1.92096 13.3659 2.27377 13.5457C2.67485 13.75 3.1999 13.75 4.25 13.75H9.5C10.5501 13.75 11.0751 13.75 11.4762 13.5457C11.829 13.3659 12.1159 13.0791 12.2956 12.7263C12.5 12.3252 12.5 11.8001 12.5 10.75V8.12502M4.99998 10H6.04657C6.35231 10 6.50518 10 6.64904 9.96548C6.77658 9.93486 6.89852 9.88436 7.01036 9.81582C7.1365 9.73852 7.2446 9.63042 7.46079 9.41423L13.4375 3.43752C13.9553 2.91975 13.9553 2.08029 13.4375 1.56252C12.9197 1.04475 12.0803 1.04475 11.5625 1.56252L5.58577 7.53923C5.36958 7.75542 5.26149 7.86352 5.18418 7.98966C5.11565 8.1015 5.06514 8.22343 5.03452 8.35098C4.99998 8.49484 4.99998 8.64771 4.99998 8.95345V10Z" stroke="black" stroke-width="2" stroke-linecap="round" stroke-linejoin="round"/>
</g>
<defs>
<clipPath id="clip0_1612_863">
<rect width="15" height="15" fill="white"/>
</clipPath>
</defs>
</svg>
